<svg width="304" height="562" viewBox="0 0 304 562" fill="none" xmlns="http://www.w3.org/2000/svg">
<path d="M233.85 117.545V122.363H304V154.915H233.85V427.994H204.565V154.915H154.292V122.363H204.565V117.545C204.576 37.3699 239.374 0 304 0V31.9466C255.946 31.9466 233.85 54.8627 233.85 117.545Z" fill="#6D28D2"/>
<path d="M232.786 210.371V561.809H208.402V417.209C189.079 449.847 156.873 471.429 116.393 471.429C49.2196 471.429 0 411.192 0 337.886C0 264.579 49.2196 204.342 116.393 204.342C156.873 204.342 189.079 225.43 208.402 258.563V210.359H232.786V210.371ZM208.402 337.898C208.402 279.156 170.22 230.952 116.393 230.952C62.5659 230.952 24.8362 279.156 24.8362 337.898C24.8362 396.64 62.5659 444.337 116.393 444.337C170.22 444.337 208.402 396.64 208.402 337.898Z" fill="#6D28D2"/>
</svg>
